<svg xmlns="http://www.w3.org/2000/svg" viewBox="0 0 75 75"><style>.st0{fill:#C8325A;} .st1{opacity:0.42;fill:#FFFFFF;} .st2{fill:#FFFFFF;} .st3{opacity:0.72;} .st4{fill:#FFE501;} .st5{fill:#DEBF24;} .st6{fill:#FFD100;} .st7{opacity:0.72;fill:#FFFFFF;} .st8{fill:#3D8269;} .st9{fill:#F4B28A;} .st10{fill:#5D2530;} .st11{opacity:0.42;} .st12{opacity:0.7;fill:#FFFFFF;} .st13{fill:#1A475B;} .st14{fill:#C77F83;} .st15{fill:#FBD133;} .st16{fill:#E93F34;} .st17{fill:#ED8AAC;} .st18{fill:#FACD33;} .st19{fill:#C6342A;} .st20{fill:none;stroke:#FFFFFF;stroke-width:1.2664;stroke-linecap:round;stroke-linejoin:round;stroke-miterlimit:10;} .st21{fill:#255B68;} .st22{fill:#97AAFF;} .st23{fill:none;stroke:#FFFFFF;stroke-width:1.4259;stroke-linecap:round;stroke-linejoin:round;stroke-miterlimit:10;} .st24{fill:#65B6BA;} .st25{fill:none;stroke:#3D8269;stroke-width:1.4259;stroke-linecap:round;stroke-linejoin:round;stroke-miterlimit:10;} .st26{fill:#EC623E;} .st27{fill:#FCE8D2;} .st28{opacity:0.8;fill:#FFFFFF;} .st29{fill:#17475D;} .st30{opacity:0.72;fill:#17475D;} .st31{fill:none;stroke:#FFFFFF;stroke-width:2;stroke-linecap:round;stroke-linejoin:round;stroke-miterlimit:10;} .st32{fill:#FFE8D2;} .st33{fill-rule:evenodd;clip-rule:evenodd;fill:#FCFCFC;} .st34{fill-rule:evenodd;clip-rule:evenodd;fill:#FACD33;} .st35{fill-rule:evenodd;clip-rule:evenodd;fill:#F1EFAF;} .st36{fill-rule:evenodd;clip-rule:evenodd;fill:#E93F34;} .st37{fill-rule:evenodd;clip-rule:evenodd;fill:#C6342A;} .st38{fill-rule:evenodd;clip-rule:evenodd;fill:#FDE9D9;} .st39{fill-rule:evenodd;clip-rule:evenodd;fill:#3D8269;} .st40{fill-rule:evenodd;clip-rule:evenodd;fill:#C8325A;} .st41{fill-rule:evenodd;clip-rule:evenodd;fill:#ED8AAC;} .st42{fill-rule:evenodd;clip-rule:evenodd;fill:#F6A2B6;} .st43{opacity:0.42;fill-rule:evenodd;clip-rule:evenodd;fill:#FFFFFF;} .st44{opacity:0.72;fill-rule:evenodd;clip-rule:evenodd;fill:#FFFFFF;} .st45{fill-rule:evenodd;clip-rule:evenodd;fill:#FFFFFF;} .st46{fill-rule:evenodd;clip-rule:evenodd;fill:#73353D;} .st47{fill:#F6A154;} .st48{fill:#815251;} .st49{fill-rule:evenodd;clip-rule:evenodd;fill:#D3934C;} .st50{fill-rule:evenodd;clip-rule:evenodd;fill:#FFEBDA;} .st51{fill-rule:evenodd;clip-rule:evenodd;fill:#B5E4E5;} .st52{clip-path:url(#SVGID_2_);fill:#898FC4;} .st53{clip-path:url(#SVGID_4_);fill:#0B6B79;} .st54{clip-path:url(#SVGID_4_);fill:#15465C;} .st55{clip-path:url(#SVGID_4_);fill:#F7C1C4;} .st56{clip-path:url(#SVGID_4_);fill:#FADDE5;} .st57{clip-path:url(#SVGID_4_);fill:#FFFFFF;} .st58{clip-path:url(#SVGID_4_);fill:#815251;} .st59{clip-path:url(#SVGID_4_);fill:#B4221E;} .st60{clip-path:url(#SVGID_4_);fill:#57282F;} .st61{clip-path:url(#SVGID_4_);fill:#EA5A22;} .st62{clip-path:url(#SVGID_4_);fill:#CA301D;} .st63{clip-path:url(#SVGID_4_);fill:#F9BB00;} .st64{clip-path:url(#SVGID_4_);fill:#FFE099;} .st65{clip-path:url(#SVGID_4_);fill:#FFD7A2;} .st66{clip-path:url(#SVGID_6_);fill:#FFFFFF;} .st67{clip-path:url(#SVGID_6_);fill:#70A290;} .st68{clip-path:url(#SVGID_6_);fill:#0B6B79;} .st69{clip-path:url(#SVGID_6_);fill:#BED6A2;} .st70{clip-path:url(#SVGID_6_);fill:#FFE4CC;} .st71{clip-path:url(#SVGID_8_);fill:#FFFFFF;} .st72{clip-path:url(#SVGID_8_);fill:#EAEA94;} .st73{clip-path:url(#SVGID_10_);fill:#EAEA94;} .st74{clip-path:url(#SVGID_12_);fill:#EAEA94;} .st75{clip-path:url(#SVGID_14_);fill:#F7A455;} .st76{clip-path:url(#SVGID_14_);fill:#F7A457;} .st77{clip-path:url(#SVGID_14_);fill:#AE5135;} .st78{clip-path:url(#SVGID_14_);fill:#BC807A;} .st79{clip-path:url(#SVGID_14_);fill:#C11E1B;} .st80{clip-path:url(#SVGID_14_);fill:#F6A154;} .st81{clip-path:url(#SVGID_14_);fill:#C62921;} .st82{clip-path:url(#SVGID_14_);fill:#815251;} .st83{clip-path:url(#SVGID_14_);fill:#57282F;} .st84{clip-path:url(#SVGID_16_);fill:#F7A455;} .st85{clip-path:url(#SVGID_16_);fill:#F7A457;} .st86{clip-path:url(#SVGID_16_);fill:#AE5135;} .st87{clip-path:url(#SVGID_16_);fill:#815251;} .st88{clip-path:url(#SVGID_16_);fill:#BC807A;} .st89{clip-path:url(#SVGID_16_);fill:#8E1F37;} .st90{clip-path:url(#SVGID_16_);fill:#F6A154;} .st91{clip-path:url(#SVGID_16_);fill:#57282F;} .st92{clip-path:url(#SVGID_16_);fill:#F69F2D;} .st93{fill:#5C272F;} .st94{fill:#2D2846;} .st95{fill:#9B91E1;} .st96{fill:#55508C;} .st97{opacity:0.67;fill:#2D2846;} .st98{opacity:0.78;fill:#2D2846;} .st99{fill:#007D68;} .st100{fill:#C4D9A5;} .st101{fill:#72A492;} .st102{fill:#18475D;} .st103{fill:#AFE1E1;} .st104{fill:#056E7D;} .st105{fill:#960032;} .st106{fill:#F6A2B6;} .st107{fill:#C5822D;} .st108{fill:#FFDCAA;} .st109{fill:#FFA526;} .st110{fill:none;stroke:#C2837E;stroke-miterlimit:10;} .st111{fill:none;stroke:#C2837E;stroke-linecap:round;stroke-miterlimit:10;} .st112{fill:none;stroke:#C2837E;stroke-linejoin:round;stroke-miterlimit:10;} .st113{fill:#C2837E;} .st114{fill:none;stroke:#C2837E;stroke-linecap:round;stroke-linejoin:round;stroke-miterlimit:10;} .st115{fill:#895453;} .st116{fill:#84AC49;} .st117{fill-rule:evenodd;clip-rule:evenodd;fill:none;stroke:#FFFFFF;stroke-width:2;stroke-linecap:round;stroke-linejoin:round;stroke-miterlimit:10;} .st118{fill:#4C4C4C;} .st119{opacity:0.67;} .st120{opacity:0.78;} .st121{fill-rule:evenodd;clip-rule:evenodd;fill:#2D2846;} .st122{opacity:0.78;fill-rule:evenodd;clip-rule:evenodd;fill:#2D2846;} .st123{opacity:0.67;fill-rule:evenodd;clip-rule:evenodd;fill:#2D2846;} .st124{fill-rule:evenodd;clip-rule:evenodd;fill:#726F83;} .st125{fill:#726F83;} .st126{fill-rule:evenodd;clip-rule:evenodd;fill:#797394;} .st127{fill-rule:evenodd;clip-rule:evenodd;fill:#5B566F;} .st128{fill:#797394;} .st129{fill:#5B566F;} .st130{fill:#FAFAF9;} .st131{fill:none;stroke:#8CA2C2;stroke-width:9.120938e-02;stroke-linecap:round;stroke-linejoin:round;} .st132{fill:#C1300C;} .st133{fill:none;stroke:#8CA2C2;stroke-width:8.250433e-02;stroke-linecap:round;stroke-linejoin:round;} .st134{fill:#DEC024;} .st135{display:none;} .st136{display:inline;fill:none;stroke:#FFFFFF;stroke-miterlimit:10;} .st137{fill:#DEC024;stroke:#FFFFFF;stroke-width:0.5373;stroke-miterlimit:10;} .st138{fill:#D78A8B;} .st139{opacity:0.68;}</style><g id="Calque_1"><circle class="st2" cx="37.2" cy="37.5" r="37"/><path class="st6" d="M32 39.2c-1.7-.8-4-.8-4-.8l.1 1.6-4.7.9-4.6-.9v-1.5s-1.9-.3-4.3.9c-4.1 1.8-6.9 5.9-6.9 10.6v1.9c0 .8.7 1.5 1.5 1.5h28.7c.7 0 1.3-.5 1.5-1.2.8-5.9-2.4-11-7.3-13z"/><path class="st9" d="M29.5 26.2c-.8 0-1.5.4-1.6 1.3-.1 1-1 .9-1 .9-.9.2-.8-1.1-.8-1.1.1-1.2-1.3-1-1.3-1-1.8 0-1.4 2.5-1.4 2.5.1.7.7 1.3.7 2.4s-2.7 2.4-2.7 2.4c-1.2.7-2.1.9-2.7.9 0 1 .3 3.9 0 4V40s3.7 1.2 4.8 1.2c1.2 0 4.5-1.2 4.5-1.2v-.7s-.3-3.1.6-3.2c.9-.1 1.7-.5 2.4-1.9 0 0-.3-2.2.8-2.5 1-.3 1.7-.4 1.7-.8s-1.7-1.5-1.2-3.1c0 0 .7-2.1.4-4h-1c.1 1.3-1.5 2.4-2.2 2.4z"/><path class="st16" d="M34.2 22.7c.3.9-.8 1.2-.8 1.2h-1.6c.1 1.3-1.5 2.3-2.3 2.3-.8 0-1.5.4-1.6 1.3-.1 1-1 .9-1 .9-.9.2-.8-1.1-.8-1.1.1-1.2-1.3-1-1.3-1-1.8 0-1.4 2.5-1.4 2.5.1.7.7 1.3.7 2.4 0 0-.2 2.1 1.9 3.3 0 0-6.3 2.5-9.8.5-1.2-.7-4-.7-4.2-2.6 0 0 .4-4.5 1.5-6 .9-1.2.3-3.2 1.1-4.8 1-2.1 1.9-4 5-5 .8-.2 2.4-1.2 3.3-1.4.7-.1 1.4.7 2.1.7.1 0 9.3-1.2 9.2 6.8z"/><path class="st6" d="M16.6 53.3h-1.9V41.2s.1-.7.9-.7.9.7.9.7v12.1zM31.5 53.3h-1.9V41.2s.1-.7.9-.7.9.7.9.7v12.1z"/><path class="st9" d="M18.8 40s3.7 1.2 4.8 1.2c3.5 0 4.5-1.2 4.5-1.2"/><path class="st8" d="M28.1 38.4l1.2 9.2s-5 2.8-11 0l.4-9.1s-1.1-.3-1.6.1l-1.5 14.8h16.2l-2.2-14.8c0-.1-.5-.4-1.5-.2z"/><g><path class="st47" d="M59 29.8c-.8-.7-1-1.5-.8-2.4.3-1.1-.4-1.9-.8-2.8l-.8-.8c-1.1.2-3.5-1-4.1-.3-1.6 1.7-2.6 3.5-4.7 4.3L47 27h-.8c-1.8-1.1-1.2 1.1-1.6 1.7-.4.7-.6 1.5-.8 2.3.2.8.9.6.9 1.5 0 .8.6 3.7-.1 5.7l-.1 2.1 4.8 1.1c.3.2 5-1 5.3-1.2.1-.6-2.1-3.4.6-3.4 1.9 0 2.2-1.5 2.2-3.1 0-.6.6-1.7 1.1-1.8 2-.5 1.4-1.3.5-2.1"/><path class="st48" d="M44.7 32.8c-3.1-2-3.4-4.4-4.1-6.4-.4-1-.3-3.2-.4-4.3 0-.3 0-.6.2-.8 1.7-1.7 2-4.4 4.5-5.4.8-.3 1.9-.6 2.4-.9.3-.2.7-.4 1.1-.5.5-.2 1 0 1.3.4.8 1.1 2.1.1 3.3 1 1.4-1.7 2.2-.3 3 .6.2.2.5.3.5.6.5 1.1 2.4-.4 2.4 1.2 0 1.3.9 1.8 1.4 2.6.4.8 1.1 1.9-.8 2.3-.8.1-1.4 1-2.1 1.5l-.8-.8c-1.1.2-2.5 0-3.2.6-3.1 2.6-4.6 5.2-5.9 5-.6-.1-.6-2.3-1.8-2.4-1.3 1 1.5 5.8-1 5.7"/><path class="st8" d="M57.8 39.2c-1.7-.8-3.9-.8-3.9-.8V40l-4.7.9-4.5-.9v-1.5s-1.9-.3-4.3.9c-4.1 1.8-6.9 5.9-6.9 10.6v2.1c0 .7.6 1.2 1.2 1.2h29.1c.6 0 1.1-.4 1.2-1 1.1-5.9-2.2-11.1-7.2-13.1z"/><path class="st6" d="M42.5 53.3h-1.9V41.2s.1-.7.9-.7.9.7.9.7v12.1zM57.3 53.3h-1.9V41.2s.1-.7.9-.7.9.7.9.7v12.1zM53.9 50.8h-3c-.3 0-.5-.2-.5-.5v-.8c0-.3.2-.5.5-.5h3c.3 0 .5.2.5.5v.8c.1.3-.2.5-.5.5z"/></g></g></svg>