<svg xmlns="http://www.w3.org/2000/svg" viewBox="0 0 75 75"><style>.st0{fill:#C8325A;} .st1{opacity:0.42;fill:#FFFFFF;} .st2{fill:#FFFFFF;} .st3{opacity:0.72;} .st4{fill:#FFE501;} .st5{fill:#DEBF24;} .st6{fill:#FFD100;} .st7{opacity:0.72;fill:#FFFFFF;} .st8{fill:#3D8269;} .st9{fill:#F4B28A;} .st10{fill:#5D2530;} .st11{opacity:0.42;} .st12{opacity:0.7;fill:#FFFFFF;} .st13{fill:#1A475B;} .st14{fill:#C77F83;} .st15{fill:#FBD133;} .st16{fill:#E93F34;} .st17{fill:#ED8AAC;} .st18{fill:#FACD33;} .st19{fill:#C6342A;} .st20{fill:none;stroke:#FFFFFF;stroke-width:1.2664;stroke-linecap:round;stroke-linejoin:round;stroke-miterlimit:10;} .st21{fill:#255B68;} .st22{fill:#97AAFF;} .st23{fill:none;stroke:#FFFFFF;stroke-width:1.4259;stroke-linecap:round;stroke-linejoin:round;stroke-miterlimit:10;} .st24{fill:#65B6BA;} .st25{fill:none;stroke:#3D8269;stroke-width:1.4259;stroke-linecap:round;stroke-linejoin:round;stroke-miterlimit:10;} .st26{fill:#EC623E;} .st27{fill:#FCE8D2;} .st28{opacity:0.8;fill:#FFFFFF;} .st29{fill:#17475D;} .st30{opacity:0.72;fill:#17475D;} .st31{fill:none;stroke:#FFFFFF;stroke-width:2;stroke-linecap:round;stroke-linejoin:round;stroke-miterlimit:10;} .st32{fill:#FFE8D2;} .st33{fill-rule:evenodd;clip-rule:evenodd;fill:#FCFCFC;} .st34{fill-rule:evenodd;clip-rule:evenodd;fill:#FACD33;} .st35{fill-rule:evenodd;clip-rule:evenodd;fill:#F1EFAF;} .st36{fill-rule:evenodd;clip-rule:evenodd;fill:#E93F34;} .st37{fill-rule:evenodd;clip-rule:evenodd;fill:#C6342A;} .st38{fill-rule:evenodd;clip-rule:evenodd;fill:#FDE9D9;} .st39{fill-rule:evenodd;clip-rule:evenodd;fill:#3D8269;} .st40{fill-rule:evenodd;clip-rule:evenodd;fill:#C8325A;} .st41{fill-rule:evenodd;clip-rule:evenodd;fill:#ED8AAC;} .st42{fill-rule:evenodd;clip-rule:evenodd;fill:#F6A2B6;} .st43{opacity:0.42;fill-rule:evenodd;clip-rule:evenodd;fill:#FFFFFF;} .st44{opacity:0.72;fill-rule:evenodd;clip-rule:evenodd;fill:#FFFFFF;} .st45{fill-rule:evenodd;clip-rule:evenodd;fill:#FFFFFF;} .st46{fill-rule:evenodd;clip-rule:evenodd;fill:#73353D;} .st47{fill:#F6A154;} .st48{fill:#815251;} .st49{fill-rule:evenodd;clip-rule:evenodd;fill:#D3934C;} .st50{fill-rule:evenodd;clip-rule:evenodd;fill:#FFEBDA;} .st51{fill-rule:evenodd;clip-rule:evenodd;fill:#B5E4E5;} .st52{clip-path:url(#SVGID_2_);fill:#898FC4;} .st53{clip-path:url(#SVGID_4_);fill:#0B6B79;} .st54{clip-path:url(#SVGID_4_);fill:#15465C;} .st55{clip-path:url(#SVGID_4_);fill:#F7C1C4;} .st56{clip-path:url(#SVGID_4_);fill:#FADDE5;} .st57{clip-path:url(#SVGID_4_);fill:#FFFFFF;} .st58{clip-path:url(#SVGID_4_);fill:#815251;} .st59{clip-path:url(#SVGID_4_);fill:#B4221E;} .st60{clip-path:url(#SVGID_4_);fill:#57282F;} .st61{clip-path:url(#SVGID_4_);fill:#EA5A22;} .st62{clip-path:url(#SVGID_4_);fill:#CA301D;} .st63{clip-path:url(#SVGID_4_);fill:#F9BB00;} .st64{clip-path:url(#SVGID_4_);fill:#FFE099;} .st65{clip-path:url(#SVGID_4_);fill:#FFD7A2;} .st66{clip-path:url(#SVGID_6_);fill:#FFFFFF;} .st67{clip-path:url(#SVGID_6_);fill:#70A290;} .st68{clip-path:url(#SVGID_6_);fill:#0B6B79;} .st69{clip-path:url(#SVGID_6_);fill:#BED6A2;} .st70{clip-path:url(#SVGID_6_);fill:#FFE4CC;} .st71{clip-path:url(#SVGID_8_);fill:#FFFFFF;} .st72{clip-path:url(#SVGID_8_);fill:#EAEA94;} .st73{clip-path:url(#SVGID_10_);fill:#EAEA94;} .st74{clip-path:url(#SVGID_12_);fill:#EAEA94;} .st75{clip-path:url(#SVGID_14_);fill:#F7A455;} .st76{clip-path:url(#SVGID_14_);fill:#F7A457;} .st77{clip-path:url(#SVGID_14_);fill:#AE5135;} .st78{clip-path:url(#SVGID_14_);fill:#BC807A;} .st79{clip-path:url(#SVGID_14_);fill:#C11E1B;} .st80{clip-path:url(#SVGID_14_);fill:#F6A154;} .st81{clip-path:url(#SVGID_14_);fill:#C62921;} .st82{clip-path:url(#SVGID_14_);fill:#815251;} .st83{clip-path:url(#SVGID_14_);fill:#57282F;} .st84{clip-path:url(#SVGID_16_);fill:#F7A455;} .st85{clip-path:url(#SVGID_16_);fill:#F7A457;} .st86{clip-path:url(#SVGID_16_);fill:#AE5135;} .st87{clip-path:url(#SVGID_16_);fill:#815251;} .st88{clip-path:url(#SVGID_16_);fill:#BC807A;} .st89{clip-path:url(#SVGID_16_);fill:#8E1F37;} .st90{clip-path:url(#SVGID_16_);fill:#F6A154;} .st91{clip-path:url(#SVGID_16_);fill:#57282F;} .st92{clip-path:url(#SVGID_16_);fill:#F69F2D;} .st93{fill:#5C272F;} .st94{fill:#2D2846;} .st95{fill:#9B91E1;} .st96{fill:#55508C;} .st97{opacity:0.67;fill:#2D2846;} .st98{opacity:0.78;fill:#2D2846;} .st99{fill:#007D68;} .st100{fill:#C4D9A5;} .st101{fill:#72A492;} .st102{fill:#18475D;} .st103{fill:#AFE1E1;} .st104{fill:#056E7D;} .st105{fill:#960032;} .st106{fill:#F6A2B6;} .st107{fill:#C5822D;} .st108{fill:#FFDCAA;} .st109{fill:#FFA526;} .st110{fill:none;stroke:#C2837E;stroke-miterlimit:10;} .st111{fill:none;stroke:#C2837E;stroke-linecap:round;stroke-miterlimit:10;} .st112{fill:none;stroke:#C2837E;stroke-linejoin:round;stroke-miterlimit:10;} .st113{fill:#C2837E;} .st114{fill:none;stroke:#C2837E;stroke-linecap:round;stroke-linejoin:round;stroke-miterlimit:10;} .st115{fill:#895453;} .st116{fill:#84AC49;} .st117{fill-rule:evenodd;clip-rule:evenodd;fill:none;stroke:#FFFFFF;stroke-width:2;stroke-linecap:round;stroke-linejoin:round;stroke-miterlimit:10;} .st118{fill:#4C4C4C;} .st119{opacity:0.67;} .st120{opacity:0.78;} .st121{fill-rule:evenodd;clip-rule:evenodd;fill:#2D2846;} .st122{opacity:0.78;fill-rule:evenodd;clip-rule:evenodd;fill:#2D2846;} .st123{opacity:0.67;fill-rule:evenodd;clip-rule:evenodd;fill:#2D2846;} .st124{fill-rule:evenodd;clip-rule:evenodd;fill:#726F83;} .st125{fill:#726F83;} .st126{fill-rule:evenodd;clip-rule:evenodd;fill:#797394;} .st127{fill-rule:evenodd;clip-rule:evenodd;fill:#5B566F;} .st128{fill:#797394;} .st129{fill:#5B566F;} .st130{fill:#FAFAF9;} .st131{fill:none;stroke:#8CA2C2;stroke-width:9.120938e-02;stroke-linecap:round;stroke-linejoin:round;} .st132{fill:#C1300C;} .st133{fill:none;stroke:#8CA2C2;stroke-width:8.250433e-02;stroke-linecap:round;stroke-linejoin:round;} .st134{fill:#DEC024;} .st135{display:none;} .st136{display:inline;fill:none;stroke:#FFFFFF;stroke-miterlimit:10;} .st137{fill:#DEC024;stroke:#FFFFFF;stroke-width:0.5373;stroke-miterlimit:10;} .st138{fill:#D78A8B;} .st139{opacity:0.68;}</style><g id="Calque_1"><circle class="st2" cx="37.4" cy="37.5" r="37"/><path class="st41" d="M31.9 47c-.1-3.9-.2-6.3-.3-10.2 0-.5.1-1 .1-1.5V33c-.1-1.6-.1-3.2-.2-4.7-.3-1.5-.8-2.9-1.3-4.3-.8-1.7-1.8-3.3-2.3-5.2-.4 1.3-.6 1.4-2.1 1.6-1.5.2-2.8 0-4.2-.4-.7-.2-1.2-.6-1.4-1.3-.5 1.5-1 3.1-1.6 4.6-1.2 3-2 6.1-1.8 9.4 0 .2 0 .4.2.5.9.8 2 1.3 3.2 1.6 1.4.3 2.7.7 4.1.7.3.7.1 1.4.1 2.1 0 1.5.1 3 .2 4.4.1 1.6 0 3.2.1 4.8 0 .4.2.8.1 1.2 0 .5-.2.8-.7.8-1.7 0-3.5 0-5.1-.7-.8-.3-1.6-.7-2.2-1.4-.2 9.5 5.4 7.9 6 8 1.9.1 1.7.4 3.5-.1.1.2 5.8.6 5.6-7.6z"/><path class="st42" d="M27.9 18.8c-.4 1.3-.6 1.4-2.1 1.6-1.5.2-2.8 0-4.2-.4-.7-.2-1.2-.6-1.4-1.3 0-.6.2-1.2.6-1.6 2.2-1 4.4-1.3 6.6.3.3.5.5.9.5 1.4z"/><path class="st38" d="M27.4 17.5c-2.1-1.7-4.3-1.4-6.6-.3.1-1 .6-2 .8-3 .9.4 1.8.5 2.7.6.9 0 1.8-.1 2.3-1 .1 1.3.7 2.5.8 3.7z"/><path class="st39" d="M21.5 12.4c-.2-1.1.2-1.9 1.3-2.2.9-.3 1.7-.3 2.6 0 .8.2 1.2.8 1.2 1.6-.3.4-.5 1-1.2 1.1-1.1.1-2.2.1-3.2-.4-.2-.3-.5-.3-.7-.1z"/><path class="st39" d="M21.5 12.4c.2-.1.5-.1.8 0 1 .5 2.1.4 3.2.4.6 0 .9-.6 1.2-1.1.3.7.4 1.4.1 2.1-.6.9-1.4 1-2.3 1-.9 0-1.8-.2-2.7-.6-.6-.6-.4-1.2-.3-1.8zM24.8 47c-.1-1.6-.1-10.6-.4-11.4-1.4-.1-2.8-.4-4.1-.7-1.3-.3-2.3-.8-3.3-1.6-.2 0-.3.1-.3.3.1 1.8-.2 3.7 0 5.5.2 2.5 0 5.1.1 7.7.6.7 1.4 1.1 2.2 1.4 1.7.6 3.4.7 5.1.7.5 0 .7-.3.7-.8.1-.3 0-.7 0-1.1z"/><g id="qXHv7t_4_"><path class="st33" d="M50.9 58.7c.3-.1.5-.2.8-.3.6-.3 1.1-.7 1.3-1.4.3-1.1.6-1.2 1.8-1 .6.1 1.3.3 1.9.3.8 0 1.3-.3 1.7-.9.1-.2.2-.4.3-.5.8-2.3 1.5-4.6 1.7-7 .3-3.3-.8-6.1-3.5-8.2-1.3-1-2.7-1.7-4.3-2.1-2.7-.7-5.4-1.3-8.2-1.8-.6-.1-1.3-.2-2-.1-1.5.1-2.9.2-4.4.1-3.8-.2-7.3 1-10.8 2.2-.7.2-1.5.5-2.2.7-1.9.6-3.2 1.9-3.9 3.7-1.4 3.3-1.6 6.6-.6 10.1.3.9.5 1.7 1.2 2.4.4.5 1 .8 1.5 1.2 1.8 1.4 3.8 2.6 6 3.3 1.2.4 2.4.5 3.7.6 1.9.2 3.8.3 5.3.3 4.5.1 8.6-.5 12.7-1.6z"/><path class="st34" d="M32.6 60.1c-1.3-.1-2.5-.2-3.7-.6-2.2-.7-4.2-1.9-6-3.3-.5-.4-1-.7-1.5-1.2-.7-.7-.9-1.5-1.2-2.4-1-3.4-.8-6.8.6-10.1.7-1.7 2-3.1 3.9-3.7.7-.2 1.5-.5 2.2-.7 3.5-1.1 7-2.4 10.8-2.2 1.4.1 2.9 0 4.4-.1.7-.1 1.3 0 2 .1 2.8.5 5.5 1.1 8.2 1.8 1.6.4 3.1 1.1 4.3 2.1 2.7 2.1 3.8 4.9 3.5 8.2-.2 2.4-.9 4.8-1.7 7-.1.2-.2.4-.3.5-.4.6-.9.9-1.7.9-.7 0-1.3-.2-1.9-.3-1.1-.2-1.4 0-1.8 1-.2.7-.6 1.1-1.3 1.4-.3.1-.5.2-.8.3-4.1 1.1-8.3 1.6-13 1.6-1.1 0-3.1-.2-5-.3zm20.7-5.2c.1.4.3.5.6.4.5-.1 1 .3 1.4.4 1.4.4 1.7.3 2.3-.9.6-1.3.8-2.7.7-4.1-.1-1.7-.5-3.3-1.1-4.9-.4-1.2-1.3-1.8-2.5-1.9-2.3-.1-4.6-.5-6.9-1-1-.2-2.1-.2-3.1-.4-1.4-.2-2.9-.3-4.3-.5-.1 0-.3-.1-.3.1-.1.2.1.2.2.3.4.2.8.5 1.2.6 2 .7 3.9 1.8 5.9 2.5 1 .4 1.9.8 2.9 1.2 1.2.6 2 1.5 2.3 2.8.3.9.3 1.9.4 2.9 0 .2 0 .3.1.5 0 .9-.1 1.3.2 2z"/><path class="st35" d="M53.2 55.2c.1.4 1.3.4 2.2.5 1.4.4 1.7.3 2.3-.9.6-1.3.8-2.7.7-4.1-.1-1.7-.5-3.3-1.1-4.9-.4-1.2-1.3-1.8-2.5-1.9-2.3-.1-4.6-.5-6.9-1-1-.2-2.1-.2-3.1-.4-1.4-.2-2.9-.3-4.3-.5-.1 0-.3-.1-.3.1-.1.2.1.2.2.3.4.2.8.5 1.2.6 2 .7 3.9 1.8 5.9 2.5 1 .4 1.9.8 2.9 1.2 1.2.6 2 1.5 2.3 2.8.3.9.3 1.9.4 2.9 0 .2 0 .3.1.5 0 .8-.1 1.6 0 2.3z"/><path class="st35" d="M53.2 55.2c-.2-.7 0-1.5-.2-2.2.1.8 0 1.5.2 2.2z"/></g><g id="BwrFV0_19_"><path class="st49" d="M27.7 46c.4-.1.8-.3 1.2-.4.5-.1.9-.1 1.3.2.2.2.5.3.8.3.2 0 .3.1.3.3 0 .2-.1.2-.2.3-1 .4-2.1.6-3.2.4-.2-.4-.2-.7-.2-1.1zM27.1 46.1c.1.3.2.7.2 1-.3.2-.5 0-.7-.1-.3-.2-.5-.4-.7-.5l-.1-.1v-.1c0-.1-.3-.2-.2-.4.1-.1.3-.1.5-.1.2.1.6.2 1 .3z"/><path class="st36" d="M37.1 50.6l-.3-1.2c-.9-2.7-2.8-4-5.5-4.3-1.3-.2-2.6-.1-3.9-.2.1.4.2.7.3 1.1.4-.1.8-.3 1.2-.4.5-.1.9-.1 1.3.2.2.2.5.3.8.3.2 0 .3.1.3.3 0 .2-.1.2-.2.3-1 .4-2.1.6-3.2.4-.2.2-.3 0-.5 0-.3.2-.5 0-.7-.1-.3-.2-.5-.4-.7-.5l-.1-.1v-.1c0-.1-.3-.2-.2-.4.1-.1.3-.1.5-.1.4.1.8.2 1.1.3l-.3-1.2c-1.3 0-2.6.1-3.8.5-1.9.6-3.3 1.8-3.9 3.7 0 .1-.4 1.4-.5 1.8-.1.3-.1 1.3 0 1.5.2 1.7.5 3.5 1.3 5 .2.4.4.9.8 1.1.8.9 1.6 1.8 2.7 2.3.4.2.7.4 1.1.5.2.2 1.3.5 1.5.5.8-.1 1.6-.3 2.3 0 .7.3 1.4.3 2.1.1 1-.3 1.8-.8 2.6-1.4 1.8-1.5 3.5-3.8 4-5.5.4-1.4.1-3.5-.1-4.4z"/><path class="st46" d="M27.6 45.5c0 .4.1 1.3.1 1.6-.2.2-.3 0-.5 0 0-.4-.1-.7-.2-1l-.3-1.2c-.3-1.1-.4-1.3-.8-2 0-.1-.1-.7.1-.8.1 0 .7.2.7.3.2.5.1.5.5 1.7.2.3.3 1 .4 1.4z"/></g><g><path class="st16" d="M43.4 47.1l-1.4-.3 2.9-15 2.6.6z"/><path class="st16" d="M59.4 20.2l-19.5-4.6c-1.1-.3-2.2.4-2.4 1.5l-2.7 11.6c-.3 1.1.4 2.2 1.5 2.4l19.5 4.6c1.1.3 2.2-.4 2.4-1.5l2.7-11.6c.3-1.1-.4-2.1-1.5-2.4zM55.6 33l-18-4.2L40 18.4l18 4.2L55.6 33z"/><path class="st96" d="M40.06 18.422l18.006 4.24-2.452 10.416-18.008-4.24z"/></g></g></svg>