<?xml version="1.0" encoding="utf-8"?>
<!-- Generator: Adobe Illustrator 19.1.0, SVG Export Plug-In . SVG Version: 6.00 Build 0)  -->
<svg version="1.1" xmlns="http://www.w3.org/2000/svg" xmlns:xlink="http://www.w3.org/1999/xlink" x="0px" y="0px"
	 viewBox="0 0 75 75" style="enable-background:new 0 0 75 75;" xml:space="preserve">
<style type="text/css">
	.st0{fill:#C8325A;}
	.st1{fill:#FFFFFF;}
	.st2{opacity:0.42;fill:#FFFFFF;}
	.st3{opacity:0.72;}
	.st4{fill:#FFE501;}
	.st5{fill:#DEBF24;}
	.st6{fill:#FFD100;}
	.st7{opacity:0.72;fill:#FFFFFF;}
	.st8{fill:#3D8269;}
	.st9{fill:#F4B28A;}
	.st10{fill:#5D2530;}
	.st11{opacity:0.42;}
	.st12{opacity:0.7;fill:#FFFFFF;}
	.st13{fill:#1A475B;}
	.st14{fill:#C77F83;}
	.st15{fill:#FBD133;}
	.st16{fill:#E93F34;}
	.st17{fill:none;stroke:#FFFFFF;stroke-width:1.2664;stroke-linecap:round;stroke-linejoin:round;stroke-miterlimit:10;}
	.st18{fill:#ED8AAC;}
	.st19{fill:#FACD33;}
	.st20{fill:#C6342A;}
	.st21{fill:#97E7F0;}
	.st22{fill:#17475D;}
	.st23{fill:#255B68;}
	.st24{fill:#97AAFF;}
	.st25{fill:none;stroke:#FFFFFF;stroke-width:1.4259;stroke-linecap:round;stroke-linejoin:round;stroke-miterlimit:10;}
	.st26{fill:#65B6BA;}
	.st27{fill:none;stroke:#3D8269;stroke-width:1.4259;stroke-linecap:round;stroke-linejoin:round;stroke-miterlimit:10;}
	.st28{fill:#EC623E;}
	.st29{fill:#FCE8D2;}
	.st30{opacity:0.8;fill:#FFFFFF;}
	.st31{opacity:0.72;fill:#17475D;}
	.st32{fill:#FFE8D2;}
	.st33{display:none;}
	.st34{display:inline;fill:none;stroke:#FFFFFF;stroke-miterlimit:10;}
</style>
<g id="Calque_2">
</g>
<g id="Calque_1">
	<g>
		<g>
			<path class="st1" d="M49.4,37.8c0,0-14.6,0.4-16.8-6.8c-1-3.3-0.6-6.2,1.2-8.5c-3.3-0.3-7.3-0.1-12.5,0.9c0,0-13.2,3.2-10.5,16.5
				c0,0,1.6,5.3,8.7,7.7c-0.4,2.2-1.3,6.1-2.9,7.7c0,0,6.5-3.2,10.4-6.6c0.1,0,0.1,0,0.2,0c0,0,19.1,0.5,22-8.9
				c0.2-0.7,0.4-1.4,0.5-2c-0.1,0-0.1-0.1-0.2-0.1C49.5,37.8,49.4,37.8,49.4,37.8z"/>
		</g>
		<path class="st2" d="M38.7,19c3.3-1.2,7.6-2.1,15.2-0.6c0,0,10.1,2.4,8,12.6c0,0-1.2,4.1-6.7,5.9c0.3,1.6,1,4.6,2.2,5.9
			c0,0-5-2.4-7.9-5c-0.1,0-0.1,0-0.2,0c0,0-14.6,0.4-16.8-6.8C30.9,25.6,33.2,21.1,38.7,19z"/>
	</g>
</g>
<g id="reperes_icones" class="st33">
</g>
</svg>
